<svg xmlns="http://www.w3.org/2000/svg" height="560" shape-rendering="crispEdges" version="1.1" width="528">
    <rect fill="#ffffff" height="560" width="528" x="0" y="0"/>
    <text font-family="monospace" x="20" y="20"><tspan dy="16" x="20">Hello World</tspan></text>
    <path d="M 64 64 h 16 v 16 H 64 V 64 M 80 64 h 16 v 16 H 80 V 64 M 96 64 h 16 v 16 H 96 V 64 M 112 64 h 16 v 16 H 112 V 64 M 128 64 h 16 v 16 H 128 V 64 M 144 64 h 16 v 16 H 144 V 64 M 160 64 h 16 v 16 H 160 V 64 M 208 64 h 16 v 16 H 208 V 64 M 256 64 h 16 v 16 H 256 V 64 M 288 64 h 16 v 16 H 288 V 64 M 304 64 h 16 v 16 H 304 V 64 M 320 64 h 16 v 16 H 320 V 64 M 352 64 h 16 v 16 H 352 V 64 M 368 64 h 16 v 16 H 368 V 64 M 384 64 h 16 v 16 H 384 V 64 M 400 64 h 16 v 16 H 400 V 64 M 416 64 h 16 v 16 H 416 V 64 M 432 64 h 16 v 16 H 432 V 64 M 448 64 h 16 v 16 H 448 V 64 M 64 80 h 16 v 16 H 64 V 80 M 160 80 h 16 v 16 H 160 V 80 M 192 80 h 16 v 16 H 192 V 80 M 256 80 h 16 v 16 H 256 V 80 M 272 80 h 16 v 16 H 272 V 80 M 288 80 h 16 v 16 H 288 V 80 M 320 80 h 16 v 16 H 320 V 80 M 352 80 h 16 v 16 H 352 V 80 M 448 80 h 16 v 16 H 448 V 80 M 64 96 h 16 v 16 H 64 V 96 M 96 96 h 16 v 16 H 96 V 96 M 112 96 h 16 v 16 H 112 V 96 M 128 96 h 16 v 16 H 128 V 96 M 160 96 h 16 v 16 H 160 V 96 M 192 96 h 16 v 16 H 192 V 96 M 208 96 h 16 v 16 H 208 V 96 M 240 96 h 16 v 16 H 240 V 96 M 272 96 h 16 v 16 H 272 V 96 M 288 96 h 16 v 16 H 288 V 96 M 304 96 h 16 v 16 H 304 V 96 M 352 96 h 16 v 16 H 352 V 96 M 384 96 h 16 v 16 H 384 V 96 M 400 96 h 16 v 16 H 400 V 96 M 416 96 h 16 v 16 H 416 V 96 M 448 96 h 16 v 16 H 448 V 96 M 64 112 h 16 v 16 H 64 V 112 M 96 112 h 16 v 16 H 96 V 112 M 112 112 h 16 v 16 H 112 V 112 M 128 112 h 16 v 16 H 128 V 112 M 160 112 h 16 v 16 H 160 V 112 M 192 112 h 16 v 16 H 192 V 112 M 208 112 h 16 v 16 H 208 V 112 M 240 112 h 16 v 16 H 240 V 112 M 272 112 h 16 v 16 H 272 V 112 M 320 112 h 16 v 16 H 320 V 112 M 352 112 h 16 v 16 H 352 V 112 M 384 112 h 16 v 16 H 384 V 112 M 400 112 h 16 v 16 H 400 V 112 M 416 112 h 16 v 16 H 416 V 112 M 448 112 h 16 v 16 H 448 V 112 M 64 128 h 16 v 16 H 64 V 128 M 96 128 h 16 v 16 H 96 V 128 M 112 128 h 16 v 16 H 112 V 128 M 128 128 h 16 v 16 H 128 V 128 M 160 128 h 16 v 16 H 160 V 128 M 192 128 h 16 v 16 H 192 V 128 M 208 128 h 16 v 16 H 208 V 128 M 224 128 h 16 v 16 H 224 V 128 M 304 128 h 16 v 16 H 304 V 128 M 320 128 h 16 v 16 H 320 V 128 M 352 128 h 16 v 16 H 352 V 128 M 384 128 h 16 v 16 H 384 V 128 M 400 128 h 16 v 16 H 400 V 128 M 416 128 h 16 v 16 H 416 V 128 M 448 128 h 16 v 16 H 448 V 128 M 64 144 h 16 v 16 H 64 V 144 M 160 144 h 16 v 16 H 160 V 144 M 192 144 h 16 v 16 H 192 V 144 M 288 144 h 16 v 16 H 288 V 144 M 320 144 h 16 v 16 H 320 V 144 M 352 144 h 16 v 16 H 352 V 144 M 448 144 h 16 v 16 H 448 V 144 M 64 160 h 16 v 16 H 64 V 160 M 80 160 h 16 v 16 H 80 V 160 M 96 160 h 16 v 16 H 96 V 160 M 112 160 h 16 v 16 H 112 V 160 M 128 160 h 16 v 16 H 128 V 160 M 144 160 h 16 v 16 H 144 V 160 M 160 160 h 16 v 16 H 160 V 160 M 192 160 h 16 v 16 H 192 V 160 M 224 160 h 16 v 16 H 224 V 160 M 256 160 h 16 v 16 H 256 V 160 M 288 160 h 16 v 16 H 288 V 160 M 320 160 h 16 v 16 H 320 V 160 M 352 160 h 16 v 16 H 352 V 160 M 368 160 h 16 v 16 H 368 V 160 M 384 160 h 16 v 16 H 384 V 160 M 400 160 h 16 v 16 H 400 V 160 M 416 160 h 16 v 16 H 416 V 160 M 432 160 h 16 v 16 H 432 V 160 M 448 160 h 16 v 16 H 448 V 160 M 240 176 h 16 v 16 H 240 V 176 M 256 176 h 16 v 16 H 256 V 176 M 288 176 h 16 v 16 H 288 V 176 M 304 176 h 16 v 16 H 304 V 176 M 96 192 h 16 v 16 H 96 V 192 M 144 192 h 16 v 16 H 144 V 192 M 160 192 h 16 v 16 H 160 V 192 M 176 192 h 16 v 16 H 176 V 192 M 192 192 h 16 v 16 H 192 V 192 M 224 192 h 16 v 16 H 224 V 192 M 240 192 h 16 v 16 H 240 V 192 M 256 192 h 16 v 16 H 256 V 192 M 288 192 h 16 v 16 H 288 V 192 M 320 192 h 16 v 16 H 320 V 192 M 336 192 h 16 v 16 H 336 V 192 M 368 192 h 16 v 16 H 368 V 192 M 384 192 h 16 v 16 H 384 V 192 M 400 192 h 16 v 16 H 400 V 192 M 416 192 h 16 v 16 H 416 V 192 M 432 192 h 16 v 16 H 432 V 192 M 96 208 h 16 v 16 H 96 V 208 M 144 208 h 16 v 16 H 144 V 208 M 176 208 h 16 v 16 H 176 V 208 M 208 208 h 16 v 16 H 208 V 208 M 224 208 h 16 v 16 H 224 V 208 M 288 208 h 16 v 16 H 288 V 208 M 304 208 h 16 v 16 H 304 V 208 M 352 208 h 16 v 16 H 352 V 208 M 368 208 h 16 v 16 H 368 V 208 M 400 208 h 16 v 16 H 400 V 208 M 416 208 h 16 v 16 H 416 V 208 M 448 208 h 16 v 16 H 448 V 208 M 64 224 h 16 v 16 H 64 V 224 M 112 224 h 16 v 16 H 112 V 224 M 144 224 h 16 v 16 H 144 V 224 M 160 224 h 16 v 16 H 160 V 224 M 192 224 h 16 v 16 H 192 V 224 M 224 224 h 16 v 16 H 224 V 224 M 240 224 h 16 v 16 H 240 V 224 M 256 224 h 16 v 16 H 256 V 224 M 288 224 h 16 v 16 H 288 V 224 M 304 224 h 16 v 16 H 304 V 224 M 320 224 h 16 v 16 H 320 V 224 M 368 224 h 16 v 16 H 368 V 224 M 400 224 h 16 v 16 H 400 V 224 M 416 224 h 16 v 16 H 416 V 224 M 448 224 h 16 v 16 H 448 V 224 M 64 240 h 16 v 16 H 64 V 240 M 144 240 h 16 v 16 H 144 V 240 M 192 240 h 16 v 16 H 192 V 240 M 224 240 h 16 v 16 H 224 V 240 M 256 240 h 16 v 16 H 256 V 240 M 272 240 h 16 v 16 H 272 V 240 M 304 240 h 16 v 16 H 304 V 240 M 400 240 h 16 v 16 H 400 V 240 M 432 240 h 16 v 16 H 432 V 240 M 96 256 h 16 v 16 H 96 V 256 M 112 256 h 16 v 16 H 112 V 256 M 128 256 h 16 v 16 H 128 V 256 M 160 256 h 16 v 16 H 160 V 256 M 176 256 h 16 v 16 H 176 V 256 M 224 256 h 16 v 16 H 224 V 256 M 256 256 h 16 v 16 H 256 V 256 M 304 256 h 16 v 16 H 304 V 256 M 320 256 h 16 v 16 H 320 V 256 M 352 256 h 16 v 16 H 352 V 256 M 400 256 h 16 v 16 H 400 V 256 M 448 256 h 16 v 16 H 448 V 256 M 80 272 h 16 v 16 H 80 V 272 M 112 272 h 16 v 16 H 112 V 272 M 224 272 h 16 v 16 H 224 V 272 M 256 272 h 16 v 16 H 256 V 272 M 320 272 h 16 v 16 H 320 V 272 M 352 272 h 16 v 16 H 352 V 272 M 368 272 h 16 v 16 H 368 V 272 M 400 272 h 16 v 16 H 400 V 272 M 416 272 h 16 v 16 H 416 V 272 M 448 272 h 16 v 16 H 448 V 272 M 64 288 h 16 v 16 H 64 V 288 M 80 288 h 16 v 16 H 80 V 288 M 96 288 h 16 v 16 H 96 V 288 M 128 288 h 16 v 16 H 128 V 288 M 144 288 h 16 v 16 H 144 V 288 M 160 288 h 16 v 16 H 160 V 288 M 176 288 h 16 v 16 H 176 V 288 M 192 288 h 16 v 16 H 192 V 288 M 208 288 h 16 v 16 H 208 V 288 M 240 288 h 16 v 16 H 240 V 288 M 272 288 h 16 v 16 H 272 V 288 M 288 288 h 16 v 16 H 288 V 288 M 320 288 h 16 v 16 H 320 V 288 M 352 288 h 16 v 16 H 352 V 288 M 400 288 h 16 v 16 H 400 V 288 M 416 288 h 16 v 16 H 416 V 288 M 448 288 h 16 v 16 H 448 V 288 M 144 304 h 16 v 16 H 144 V 304 M 176 304 h 16 v 16 H 176 V 304 M 192 304 h 16 v 16 H 192 V 304 M 224 304 h 16 v 16 H 224 V 304 M 272 304 h 16 v 16 H 272 V 304 M 304 304 h 16 v 16 H 304 V 304 M 320 304 h 16 v 16 H 320 V 304 M 368 304 h 16 v 16 H 368 V 304 M 384 304 h 16 v 16 H 384 V 304 M 400 304 h 16 v 16 H 400 V 304 M 64 320 h 16 v 16 H 64 V 320 M 80 320 h 16 v 16 H 80 V 320 M 96 320 h 16 v 16 H 96 V 320 M 112 320 h 16 v 16 H 112 V 320 M 128 320 h 16 v 16 H 128 V 320 M 144 320 h 16 v 16 H 144 V 320 M 160 320 h 16 v 16 H 160 V 320 M 192 320 h 16 v 16 H 192 V 320 M 208 320 h 16 v 16 H 208 V 320 M 224 320 h 16 v 16 H 224 V 320 M 288 320 h 16 v 16 H 288 V 320 M 320 320 h 16 v 16 H 320 V 320 M 336 320 h 16 v 16 H 336 V 320 M 352 320 h 16 v 16 H 352 V 320 M 368 320 h 16 v 16 H 368 V 320 M 384 320 h 16 v 16 H 384 V 320 M 400 320 h 16 v 16 H 400 V 320 M 432 320 h 16 v 16 H 432 V 320 M 192 336 h 16 v 16 H 192 V 336 M 208 336 h 16 v 16 H 208 V 336 M 224 336 h 16 v 16 H 224 V 336 M 256 336 h 16 v 16 H 256 V 336 M 272 336 h 16 v 16 H 272 V 336 M 304 336 h 16 v 16 H 304 V 336 M 320 336 h 16 v 16 H 320 V 336 M 384 336 h 16 v 16 H 384 V 336 M 400 336 h 16 v 16 H 400 V 336 M 416 336 h 16 v 16 H 416 V 336 M 64 352 h 16 v 16 H 64 V 352 M 80 352 h 16 v 16 H 80 V 352 M 96 352 h 16 v 16 H 96 V 352 M 112 352 h 16 v 16 H 112 V 352 M 128 352 h 16 v 16 H 128 V 352 M 144 352 h 16 v 16 H 144 V 352 M 160 352 h 16 v 16 H 160 V 352 M 192 352 h 16 v 16 H 192 V 352 M 208 352 h 16 v 16 H 208 V 352 M 224 352 h 16 v 16 H 224 V 352 M 240 352 h 16 v 16 H 240 V 352 M 304 352 h 16 v 16 H 304 V 352 M 320 352 h 16 v 16 H 320 V 352 M 352 352 h 16 v 16 H 352 V 352 M 384 352 h 16 v 16 H 384 V 352 M 448 352 h 16 v 16 H 448 V 352 M 64 368 h 16 v 16 H 64 V 368 M 160 368 h 16 v 16 H 160 V 368 M 192 368 h 16 v 16 H 192 V 368 M 208 368 h 16 v 16 H 208 V 368 M 256 368 h 16 v 16 H 256 V 368 M 288 368 h 16 v 16 H 288 V 368 M 320 368 h 16 v 16 H 320 V 368 M 384 368 h 16 v 16 H 384 V 368 M 432 368 h 16 v 16 H 432 V 368 M 448 368 h 16 v 16 H 448 V 368 M 64 384 h 16 v 16 H 64 V 384 M 96 384 h 16 v 16 H 96 V 384 M 112 384 h 16 v 16 H 112 V 384 M 128 384 h 16 v 16 H 128 V 384 M 160 384 h 16 v 16 H 160 V 384 M 224 384 h 16 v 16 H 224 V 384 M 304 384 h 16 v 16 H 304 V 384 M 320 384 h 16 v 16 H 320 V 384 M 336 384 h 16 v 16 H 336 V 384 M 352 384 h 16 v 16 H 352 V 384 M 368 384 h 16 v 16 H 368 V 384 M 384 384 h 16 v 16 H 384 V 384 M 400 384 h 16 v 16 H 400 V 384 M 432 384 h 16 v 16 H 432 V 384 M 64 400 h 16 v 16 H 64 V 400 M 96 400 h 16 v 16 H 96 V 400 M 112 400 h 16 v 16 H 112 V 400 M 128 400 h 16 v 16 H 128 V 400 M 160 400 h 16 v 16 H 160 V 400 M 224 400 h 16 v 16 H 224 V 400 M 240 400 h 16 v 16 H 240 V 400 M 256 400 h 16 v 16 H 256 V 400 M 304 400 h 16 v 16 H 304 V 400 M 384 400 h 16 v 16 H 384 V 400 M 64 416 h 16 v 16 H 64 V 416 M 96 416 h 16 v 16 H 96 V 416 M 112 416 h 16 v 16 H 112 V 416 M 128 416 h 16 v 16 H 128 V 416 M 160 416 h 16 v 16 H 160 V 416 M 192 416 h 16 v 16 H 192 V 416 M 208 416 h 16 v 16 H 208 V 416 M 224 416 h 16 v 16 H 224 V 416 M 256 416 h 16 v 16 H 256 V 416 M 304 416 h 16 v 16 H 304 V 416 M 320 416 h 16 v 16 H 320 V 416 M 336 416 h 16 v 16 H 336 V 416 M 352 416 h 16 v 16 H 352 V 416 M 384 416 h 16 v 16 H 384 V 416 M 400 416 h 16 v 16 H 400 V 416 M 416 416 h 16 v 16 H 416 V 416 M 432 416 h 16 v 16 H 432 V 416 M 448 416 h 16 v 16 H 448 V 416 M 64 432 h 16 v 16 H 64 V 432 M 160 432 h 16 v 16 H 160 V 432 M 208 432 h 16 v 16 H 208 V 432 M 224 432 h 16 v 16 H 224 V 432 M 240 432 h 16 v 16 H 240 V 432 M 336 432 h 16 v 16 H 336 V 432 M 352 432 h 16 v 16 H 352 V 432 M 368 432 h 16 v 16 H 368 V 432 M 384 432 h 16 v 16 H 384 V 432 M 400 432 h 16 v 16 H 400 V 432 M 64 448 h 16 v 16 H 64 V 448 M 80 448 h 16 v 16 H 80 V 448 M 96 448 h 16 v 16 H 96 V 448 M 112 448 h 16 v 16 H 112 V 448 M 128 448 h 16 v 16 H 128 V 448 M 144 448 h 16 v 16 H 144 V 448 M 160 448 h 16 v 16 H 160 V 448 M 208 448 h 16 v 16 H 208 V 448 M 240 448 h 16 v 16 H 240 V 448 M 256 448 h 16 v 16 H 256 V 448 M 288 448 h 16 v 16 H 288 V 448 M 336 448 h 16 v 16 H 336 V 448 M 384 448 h 16 v 16 H 384 V 448 M 416 448 h 16 v 16 H 416 V 448 M 448 448 h 16 v 16 H 448 V 448" fill="#000000" transform="matrix(1 0 0 1 0 32)"/>
</svg>
