<?xml version="1.0" standalone="yes"?><svg xmlns="http://www.w3.org/2000/svg" version="1.1" width="522" height="522" shape-rendering="crispEdges"><rect x="0" y="0" width="522" height="522" fill="#fff"/><path fill="#000" d="M72 72h18v18H72V72M90 72h18v18H90V72M108 72h18v18H108V72M126 72h18v18H126V72M144 72h18v18H144V72M162 72h18v18H162V72M180 72h18v18H180V72M234 72h18v18H234V72M270 72h18v18H270V72M288 72h18v18H288V72M324 72h18v18H324V72M342 72h18v18H342V72M360 72h18v18H360V72M378 72h18v18H378V72M396 72h18v18H396V72M414 72h18v18H414V72M432 72h18v18H432V72M72 90h18v18H72V90M180 90h18v18H180V90M234 90h18v18H234V90M252 90h18v18H252V90M270 90h18v18H270V90M324 90h18v18H324V90M432 90h18v18H432V90M72 108h18v18H72V108M108 108h18v18H108V108M126 108h18v18H126V108M144 108h18v18H144V108M180 108h18v18H180V108M216 108h18v18H216V108M234 108h18v18H234V108M270 108h18v18H270V108M288 108h18v18H288V108M324 108h18v18H324V108M360 108h18v18H360V108M378 108h18v18H378V108M396 108h18v18H396V108M432 108h18v18H432V108M72 126h18v18H72V126M108 126h18v18H108V126M126 126h18v18H126V126M144 126h18v18H144V126M180 126h18v18H180V126M234 126h18v18H234V126M270 126h18v18H270V126M324 126h18v18H324V126M360 126h18v18H360V126M378 126h18v18H378V126M396 126h18v18H396V126M432 126h18v18H432V126M72 144h18v18H72V144M108 144h18v18H108V144M126 144h18v18H126V144M144 144h18v18H144V144M180 144h18v18H180V144M252 144h18v18H252V144M288 144h18v18H288V144M324 144h18v18H324V144M360 144h18v18H360V144M378 144h18v18H378V144M396 144h18v18H396V144M432 144h18v18H432V144M72 162h18v18H72V162M180 162h18v18H180V162M288 162h18v18H288V162M324 162h18v18H324V162M432 162h18v18H432V162M72 180h18v18H72V180M90 180h18v18H90V180M108 180h18v18H108V180M126 180h18v18H126V180M144 180h18v18H144V180M162 180h18v18H162V180M180 180h18v18H180V180M216 180h18v18H216V180M252 180h18v18H252V180M288 180h18v18H288V180M324 180h18v18H324V180M342 180h18v18H342V180M360 180h18v18H360V180M378 180h18v18H378V180M396 180h18v18H396V180M414 180h18v18H414V180M432 180h18v18H432V180M216 198h18v18H216V198M234 198h18v18H234V198M270 198h18v18H270V198M288 198h18v18H288V198M72 216h18v18H72V216M90 216h18v18H90V216M108 216h18v18H108V216M144 216h18v18H144V216M162 216h18v18H162V216M180 216h18v18H180V216M198 216h18v18H198V216M216 216h18v18H216V216M234 216h18v18H234V216M252 216h18v18H252V216M270 216h18v18H270V216M306 216h18v18H306V216M324 216h18v18H324V216M396 216h18v18H396V216M90 234h18v18H90V234M108 234h18v18H108V234M144 234h18v18H144V234M162 234h18v18H162V234M216 234h18v18H216V234M234 234h18v18H234V234M252 234h18v18H252V234M324 234h18v18H324V234M342 234h18v18H342V234M360 234h18v18H360V234M414 234h18v18H414V234M432 234h18v18H432V234M72 252h18v18H72V252M108 252h18v18H108V252M144 252h18v18H144V252M180 252h18v18H180V252M216 252h18v18H216V252M252 252h18v18H252V252M288 252h18v18H288V252M306 252h18v18H306V252M342 252h18v18H342V252M360 252h18v18H360V252M378 252h18v18H378V252M396 252h18v18H396V252M414 252h18v18H414V252M432 252h18v18H432V252M108 270h18v18H108V270M216 270h18v18H216V270M234 270h18v18H234V270M252 270h18v18H252V270M360 270h18v18H360V270M414 270h18v18H414V270M72 288h18v18H72V288M90 288h18v18H90V288M144 288h18v18H144V288M180 288h18v18H180V288M198 288h18v18H198V288M234 288h18v18H234V288M288 288h18v18H288V288M306 288h18v18H306V288M342 288h18v18H342V288M360 288h18v18H360V288M216 306h18v18H216V306M252 306h18v18H252V306M270 306h18v18H270V306M306 306h18v18H306V306M396 306h18v18H396V306M414 306h18v18H414V306M72 324h18v18H72V324M90 324h18v18H90V324M108 324h18v18H108V324M126 324h18v18H126V324M144 324h18v18H144V324M162 324h18v18H162V324M180 324h18v18H180V324M216 324h18v18H216V324M252 324h18v18H252V324M270 324h18v18H270V324M342 324h18v18H342V324M360 324h18v18H360V324M396 324h18v18H396V324M414 324h18v18H414V324M432 324h18v18H432V324M72 342h18v18H72V342M180 342h18v18H180V342M216 342h18v18H216V342M234 342h18v18H234V342M270 342h18v18H270V342M288 342h18v18H288V342M342 342h18v18H342V342M432 342h18v18H432V342M72 360h18v18H72V360M108 360h18v18H108V360M126 360h18v18H126V360M144 360h18v18H144V360M180 360h18v18H180V360M216 360h18v18H216V360M270 360h18v18H270V360M360 360h18v18H360V360M72 378h18v18H72V378M108 378h18v18H108V378M126 378h18v18H126V378M144 378h18v18H144V378M180 378h18v18H180V378M234 378h18v18H234V378M252 378h18v18H252V378M270 378h18v18H270V378M324 378h18v18H324V378M342 378h18v18H342V378M360 378h18v18H360V378M396 378h18v18H396V378M414 378h18v18H414V378M72 396h18v18H72V396M108 396h18v18H108V396M126 396h18v18H126V396M144 396h18v18H144V396M180 396h18v18H180V396M216 396h18v18H216V396M252 396h18v18H252V396M288 396h18v18H288V396M324 396h18v18H324V396M360 396h18v18H360V396M396 396h18v18H396V396M432 396h18v18H432V396M72 414h18v18H72V414M180 414h18v18H180V414M216 414h18v18H216V414M270 414h18v18H270V414M360 414h18v18H360V414M414 414h18v18H414V414M72 432h18v18H72V432M90 432h18v18H90V432M108 432h18v18H108V432M126 432h18v18H126V432M144 432h18v18H144V432M162 432h18v18H162V432M180 432h18v18H180V432M216 432h18v18H216V432M252 432h18v18H252V432M270 432h18v18H270V432M288 432h18v18H288V432M342 432h18v18H342V432M414 432h18v18H414V432M432 432h18v18H432V432"/></svg>